<?xml version="1.0" encoding="UTF-8" standalone="no"?>
<!DOCTYPE svg PUBLIC "-//W3C//DTD SVG 1.1//EN" "http://www.w3.org/Graphics/SVG/1.1/DTD/svg11.dtd">
<svg width="33.00" height="48.00" viewBox="0.00 0.00 550.00 800.00" xmlns="http://www.w3.org/2000/svg" xmlns:xlink="http://www.w3.org/1999/xlink">
<g stroke-linecap="round" transform="translate(-94.00, -129.00)" id="Fruit_Unitaire_Copie_17">
<path d="M36.03,80.12 C36.08,80.09 36.16,79.99 36.38,79.86 C37.22,79.36 38.49,78.72 39.51,78.27 C39.67,78.20 39.91,78.09 40.23,77.96" fill="none" stroke="rgb(0, 0, 0)" stroke-width="2.18" stroke-opacity="1.00" stroke-linejoin="round"/>
<path d="M35.73,80.35 C35.74,80.35 35.95,80.14 35.98,80.12 C36.09,80.02 37.65,79.11 38.51,78.65 C39.85,77.93 42.02,76.89 42.93,76.50 C43.19,76.39 43.45,76.28 43.70,76.17" fill="none" stroke="rgb(0, 0, 0)" stroke-width="2.18" stroke-opacity="1.00" stroke-linejoin="round"/>
<path d="M40.66,77.68 C40.89,77.50 41.80,76.93 42.76,76.44 C45.73,74.91 48.41,73.79 49.17,73.51 C49.35,73.44 49.62,73.35 49.98,73.23" fill="none" stroke="rgb(0, 0, 0)" stroke-width="2.18" stroke-opacity="1.00" stroke-linejoin="round"/>
<path d="M44.51,75.78 C44.61,75.68 44.80,75.48 45.01,75.35 C45.74,74.91 48.07,73.80 49.44,73.30 C50.47,72.93 54.80,71.62 56.39,71.14 C57.63,70.78 58.72,70.64 58.89,70.63" fill="none" stroke="rgb(0, 0, 0)" stroke-width="2.18" stroke-opacity="1.00" stroke-linejoin="round"/>
<path d="M60.87,70.42 C60.86,70.40 60.84,70.38 60.82,70.37 C60.70,70.34 60.56,70.33 60.39,70.33 C60.05,70.33 59.64,70.38 59.17,70.49 C58.65,70.60 57.78,70.82 56.57,71.15 C56.27,71.23 55.99,71.31 55.73,71.39" fill="none" stroke="rgb(0, 0, 0)" stroke-width="2.18" stroke-opacity="1.00" stroke-linejoin="round"/>
<path d="M99.11,78.13 C99.01,78.32 98.20,80.27 97.38,81.23 C96.48,82.27 93.02,84.97 92.15,85.73 C90.96,86.77 90.39,87.86 90.53,88.53 C90.72,89.29 91.91,90.40 93.03,90.80 C93.16,90.84 93.40,90.91 93.75,91.01" fill="none" stroke="rgb(0, 0, 0)" stroke-width="2.18" stroke-opacity="1.00" stroke-linejoin="round"/>
<path d="M93.22,90.75 C93.20,90.74 93.19,90.74 93.18,90.74 C93.17,90.73 93.17,90.73 93.16,90.73 C93.34,90.55 93.53,90.37 93.71,90.18 C94.03,89.87 94.25,89.65 94.38,89.54 C94.48,89.46 94.62,89.35 94.81,89.22" fill="none" stroke="rgb(0, 0, 0)" stroke-width="2.18" stroke-opacity="1.00" stroke-linejoin="round"/>
<path d="M94.05,90.12 C94.08,90.05 94.46,89.52 94.62,89.30 C94.98,88.81 95.69,87.82 96.05,87.36 C96.12,87.27 96.16,87.22 96.18,87.20" fill="none" stroke="rgb(0, 0, 0)" stroke-width="2.18" stroke-opacity="1.00" stroke-linejoin="round"/>
<path d="M95.26,88.04 C95.39,87.80 95.55,87.59 96.38,86.65 C96.96,85.99 97.76,85.08 98.05,84.79 C98.20,84.65 98.35,84.51 98.50,84.36" fill="none" stroke="rgb(0, 0, 0)" stroke-width="2.18" stroke-opacity="1.00" stroke-linejoin="round"/>
<path d="M96.83,86.07 C96.98,85.92 97.12,85.77 97.27,85.62 C98.71,84.17 99.49,83.42 99.80,83.18 C99.87,83.13 99.98,83.06 100.12,82.97" fill="none" stroke="rgb(0, 0, 0)" stroke-width="2.18" stroke-opacity="1.00" stroke-linejoin="round"/>
<path d="M98.76,84.08 C98.81,84.04 98.86,83.98 98.92,83.91 C99.22,83.60 99.43,83.40 99.53,83.30 C100.29,82.63 101.85,81.89 102.11,81.85 C102.20,81.83 102.48,81.80 102.95,81.75" fill="none" stroke="rgb(0, 0, 0)" stroke-width="2.18" stroke-opacity="1.00" stroke-linejoin="round"/>
<path d="M101.03,82.37 C101.03,82.37 101.06,82.34 101.06,82.34" fill="none" stroke="rgb(0, 0, 0)" stroke-width="2.18" stroke-opacity="1.00" stroke-linejoin="round"/>
<path d="M104.32,81.52 C104.37,81.51 104.45,81.51 104.54,81.52 C104.95,81.57 105.30,81.64 105.59,81.73 C106.08,81.89 107.41,82.50 107.71,82.67 C107.79,82.72 108.01,82.86 108.37,83.09" fill="none" stroke="rgb(0, 0, 0)" stroke-width="2.18" stroke-opacity="1.00" stroke-linejoin="round"/>
<path d="M105.18,81.82 C105.17,81.81 105.21,81.83 105.23,81.84 C112.86,84.99 126.89,91.24 129.10,92.91 C130.54,94.02 132.48,96.59 132.94,97.90 C133.39,99.27 133.16,101.77 132.72,102.63 C132.29,103.40 130.05,105.00 129.28,105.25 C128.38,105.53 125.89,105.32 124.88,104.76 C123.95,104.22 122.80,102.71 122.56,102.04 C121.99,100.22 123.95,97.27 125.02,97.24 C126.26,97.23 126.88,98.05 126.43,98.81 C126.39,98.88 126.31,98.97 126.19,99.07" fill="none" stroke="rgb(0, 0, 0)" stroke-width="2.18" stroke-opacity="1.00" stroke-linejoin="round"/>
<path d="M126.44,99.24 C126.38,99.29 126.32,99.34 126.27,99.39 C125.66,100.00 125.11,101.13 125.18,101.41 C125.31,101.72 126.57,102.69 127.40,102.75 C128.42,102.80 129.95,101.52 130.20,100.55 C130.23,100.41 130.26,100.17 130.29,99.82" fill="none" stroke="rgb(0, 0, 0)" stroke-width="2.18" stroke-opacity="1.00" stroke-linejoin="round"/>
<path d="M130.21,100.26 C130.23,100.18 130.31,100.04 130.32,99.94 C130.37,99.49 130.34,98.77 130.24,98.45 C130.17,98.26 129.93,97.66 129.86,97.45 C129.84,97.41 129.83,97.36 129.82,97.32" fill="none" stroke="rgb(0, 0, 0)" stroke-width="2.18" stroke-opacity="1.00" stroke-linejoin="round"/>
<path d="M130.31,98.68 C130.33,98.61 130.34,98.55 130.33,98.50 C130.32,98.41 130.27,98.24 130.20,97.99 C129.93,97.14 129.17,96.31 128.71,95.92 C128.48,95.72 127.87,95.25 127.82,95.21" fill="none" stroke="rgb(0, 0, 0)" stroke-width="2.18" stroke-opacity="1.00" stroke-linejoin="round"/>
<path d="M128.93,96.05 C128.93,96.02 128.85,95.81 128.75,95.70 C127.91,94.79 124.56,93.54 124.44,93.53 C124.43,93.53 124.31,93.54 124.09,93.55" fill="none" stroke="rgb(0, 0, 0)" stroke-width="2.18" stroke-opacity="1.00" stroke-linejoin="round"/>
<path d="M126.22,94.14 C126.22,94.14 126.25,94.08 126.25,94.08 C126.18,94.04 126.12,94.01 126.08,94.00 C125.14,93.61 123.03,93.96 123.02,93.96" fill="none" stroke="rgb(0, 0, 0)" stroke-width="2.18" stroke-opacity="1.00" stroke-linejoin="round"/>
<path d="M118.61,98.15 C118.50,98.32 118.39,98.49 118.28,98.67 C118.23,98.75 118.17,98.84 118.11,98.94" fill="none" stroke="rgb(0, 0, 0)" stroke-width="2.18" stroke-opacity="1.00" stroke-linejoin="round"/>
<path d="M133.83,105.92 C133.84,105.88 133.86,105.84 133.87,105.79 C133.92,105.67 133.96,105.54 134.01,105.42 C132.74,106.34 131.47,107.16 130.70,107.51 C130.47,107.62 130.14,107.74 129.70,107.88 C129.57,107.92 129.44,107.96 129.31,108.00" fill="none" stroke="rgb(0, 0, 0)" stroke-width="2.18" stroke-opacity="1.00" stroke-linejoin="round"/>
<path d="M131.45,107.12 C131.37,107.17 131.31,107.22 131.25,107.27 C131.05,107.43 130.86,107.55 130.71,107.63 C129.34,108.30 126.74,108.76 125.71,108.63 C125.54,108.61 125.25,108.55 124.85,108.46" fill="none" stroke="rgb(0, 0, 0)" stroke-width="2.18" stroke-opacity="1.00" stroke-linejoin="round"/>
<path d="M119.58,104.35 C119.58,104.35 119.58,104.33 119.58,104.33" fill="none" stroke="rgb(0, 0, 0)" stroke-width="2.18" stroke-opacity="1.00" stroke-linejoin="round"/>
<path d="M119.49,102.10" fill="none" stroke="rgb(0, 0, 0)" stroke-width="2.18" stroke-opacity="1.00" stroke-linejoin="round"/>
<path d="M118.83,97.51 C118.78,97.63 118.74,97.73 118.73,97.80 C118.59,98.54 118.59,101.12 119.10,102.58 C119.43,103.49 119.53,103.88 119.55,104.26 C119.55,104.34 119.56,104.42 119.56,104.49" fill="none" stroke="rgb(0, 0, 0)" stroke-width="2.18" stroke-opacity="1.00" stroke-linejoin="round"/>
<path d="M119.24,103.06 C119.24,103.06 119.45,103.57 119.45,103.57" fill="none" stroke="rgb(0, 0, 0)" stroke-width="2.18" stroke-opacity="1.00" stroke-linejoin="round"/>
<path d="M99.99,82.91 C100.01,82.88 100.23,82.78 100.32,82.73 C100.89,82.46 101.56,82.19 102.15,82.02 C102.28,81.98 102.44,81.94 102.63,81.89" fill="none" stroke="rgb(0, 0, 0)" stroke-width="2.18" stroke-opacity="1.00" stroke-linejoin="round"/>
<path d="M101.51,82.20 C101.54,82.18 101.58,82.16 101.61,82.15 C101.70,82.11 101.85,82.06 102.05,82.00 C102.60,81.84 103.47,81.72 104.06,81.71 C104.21,81.71 104.40,81.73 104.65,81.76" fill="none" stroke="rgb(0, 0, 0)" stroke-width="2.18" stroke-opacity="1.00" stroke-linejoin="round"/>
<path d="M102.26,81.90 C102.50,81.88 102.68,81.86 102.79,81.86 C103.39,81.83 104.40,81.92 105.01,82.08 C105.18,82.12 105.42,82.20 105.75,82.31" fill="none" stroke="rgb(0, 0, 0)" stroke-width="2.18" stroke-opacity="1.00" stroke-linejoin="round"/>
<path d="M103.20,75.95 C103.92,76.59 111.75,80.12 118.36,82.82 C126.29,85.97 130.95,88.56 133.45,91.37 C133.84,91.81 134.61,92.89 134.76,93.21 C134.83,93.37 134.90,93.63 134.97,94.00" fill="none" stroke="rgb(0, 0, 0)" stroke-width="2.18" stroke-opacity="1.00" stroke-linejoin="round"/>
<path d="M133.99,92.48 C134.12,92.63 134.22,92.77 134.30,92.88 C134.40,93.04 134.58,93.36 134.84,93.85 C135.14,94.41 135.44,94.98 135.45,95.02" fill="none" stroke="rgb(0, 0, 0)" stroke-width="2.18" stroke-opacity="1.00" stroke-linejoin="round"/>
<path d="M134.40,92.99 C134.45,93.05 134.49,93.11 134.53,93.18 C134.54,93.20 134.67,93.44 134.92,93.90 C135.63,95.22 136.19,96.68 136.23,96.95 C136.23,97.00 136.26,97.22 136.31,97.63" fill="none" stroke="rgb(0, 0, 0)" stroke-width="2.18" stroke-opacity="1.00" stroke-linejoin="round"/>
<path d="M134.98,93.49 C134.99,93.51 135.03,93.55 135.08,93.63 C135.15,93.73 135.24,93.90 135.34,94.13 C136.27,96.22 136.66,98.60 136.61,99.85 C136.49,102.41 133.88,105.62 133.07,106.01 C132.98,106.06 132.84,106.11 132.64,106.17" fill="none" stroke="rgb(0, 0, 0)" stroke-width="2.18" stroke-opacity="1.00" stroke-linejoin="round"/>
<path d="M105.22,77.51 C105.19,77.49 105.16,77.47 105.14,77.46 C105.09,77.43 104.98,77.37 104.80,77.29 C104.01,76.90 94.85,69.67 92.07,65.99 C88.50,61.24 86.68,57.09 86.15,55.95 C86.09,55.80 86.02,55.66 85.96,55.52" fill="none" stroke="rgb(0, 0, 0)" stroke-width="2.18" stroke-opacity="1.00" stroke-linejoin="round"/>
<path d="M98.61,78.60 C98.55,78.55 98.51,78.51 98.47,78.48 C98.23,78.29 98.10,78.20 98.10,78.20 C93.92,74.54 88.95,69.44 84.79,63.23 C83.97,62.00 81.66,58.32 81.30,57.84 C81.22,57.74 81.03,57.50 80.73,57.11" fill="none" stroke="rgb(0, 0, 0)" stroke-width="2.18" stroke-opacity="1.00" stroke-linejoin="round"/>
<path d="M81.84,56.90 C81.78,56.90 81.69,56.90 81.57,56.90 C80.33,56.86 79.14,56.65 78.69,56.21 C77.62,55.13 78.63,52.68 79.87,52.21 C81.73,51.52 85.38,51.87 85.88,53.04 C86.11,53.64 85.44,54.91 85.11,55.09 C85.02,55.14 84.77,55.24 84.37,55.41" fill="none" stroke="rgb(0, 0, 0)" stroke-width="2.18" stroke-opacity="1.00" stroke-linejoin="round"/>
<path d="M86.06,56.12 C85.98,56.13 85.92,56.12 85.89,56.11 C85.80,56.08 85.72,56.03 85.64,55.95 C85.60,55.90 85.52,55.80 85.41,55.63 C85.37,55.58 85.34,55.53 85.30,55.47" fill="none" stroke="rgb(0, 0, 0)" stroke-width="2.18" stroke-opacity="1.00" stroke-linejoin="round"/>
<path d="M118.64,98.30 C118.62,98.31 118.64,98.24 118.68,98.11 C118.90,97.48 119.08,97.02 119.21,96.73 C119.38,96.38 119.81,95.76 119.83,95.75" fill="none" stroke="rgb(0, 0, 0)" stroke-width="2.18" stroke-opacity="1.00" stroke-linejoin="round"/>
<path d="M118.61,97.87 C118.67,97.73 118.72,97.62 118.76,97.54 C118.92,97.24 119.25,96.73 119.52,96.33" fill="none" stroke="rgb(0, 0, 0)" stroke-width="2.18" stroke-opacity="1.00" stroke-linejoin="round"/>
<path d="M121.24,94.44 C121.24,94.44 121.52,94.25 121.52,94.25" fill="none" stroke="rgb(0, 0, 0)" stroke-width="2.18" stroke-opacity="1.00" stroke-linejoin="round"/>
<path d="M119.18,97.50 C119.18,97.50 119.19,97.45 119.19,97.45" fill="none" stroke="rgb(0, 0, 0)" stroke-width="2.18" stroke-opacity="1.00" stroke-linejoin="round"/>
<path d="M121.02,94.97 C121.83,94.45 122.34,94.19 122.73,94.14 C122.79,94.14 122.93,94.13 123.14,94.12" fill="none" stroke="rgb(0, 0, 0)" stroke-width="2.18" stroke-opacity="1.00" stroke-linejoin="round"/>
<path d="M119.13,102.65 C119.14,102.69 119.15,102.73 119.16,102.75 C119.27,102.94 119.39,103.12 119.50,103.31 C120.25,104.59 120.68,105.32 120.79,105.49 C120.97,105.77 121.16,106.02 121.37,106.25" fill="none" stroke="rgb(0, 0, 0)" stroke-width="2.18" stroke-opacity="1.00" stroke-linejoin="round"/>
<path d="M119.28,102.62 C119.31,102.75 119.41,102.93 119.56,103.17 C121.02,105.36 122.49,106.89 122.85,107.17 C123.15,107.39 123.87,107.80 123.94,107.83" fill="none" stroke="rgb(0, 0, 0)" stroke-width="2.18" stroke-opacity="1.00" stroke-linejoin="round"/>
<path d="M121.05,105.07 C121.08,105.12 121.12,105.17 121.18,105.24 C121.39,105.48 121.61,105.70 121.83,105.91 C122.81,106.84 124.35,107.91 124.73,108.14" fill="none" stroke="rgb(0, 0, 0)" stroke-width="2.18" stroke-opacity="1.00" stroke-linejoin="round"/>
<path d="M63.29,69.24 C63.26,69.24 63.23,69.25 63.19,69.26 C62.49,69.41 58.14,73.32 57.73,74.82 C57.37,76.26 57.15,80.73 56.75,81.95 C56.25,83.42 54.42,86.72 53.78,87.48 C51.77,89.82 49.24,91.65 47.28,92.73 C46.31,93.24 43.41,94.04 42.21,93.98 C41.15,93.90 39.37,93.22 38.55,92.54 C37.78,91.89 37.01,90.08 36.92,89.02 C36.84,87.81 37.58,84.91 38.37,83.61 C39.27,82.18 41.85,79.65 43.46,78.63 C44.82,77.79 48.26,76.57 49.36,76.48 C50.61,76.40 52.33,77.41 52.94,78.18 C53.42,78.85 53.62,80.72 53.25,81.83 C52.91,82.83 51.51,85.10 50.73,85.96 C49.83,86.93 46.75,88.59 45.39,88.75 C44.39,88.85 42.62,86.27 42.69,85.18 C42.82,83.69 45.39,81.26 46.56,81.51 C49.71,82.27 47.13,84.71 46.74,84.94 C46.59,85.03 46.33,85.14 45.96,85.28" fill="none" stroke="rgb(0, 0, 0)" stroke-width="2.18" stroke-opacity="1.00" stroke-linejoin="round"/>
<path d="M62.73,69.74 C62.73,69.74 62.69,69.72 62.69,69.72 C62.91,69.41 63.45,69.21 64.68,69.07 C66.30,68.87 70.65,68.47 71.49,68.61 C74.30,69.12 78.45,71.50 81.04,74.37 C81.67,75.07 81.92,76.32 81.45,77.19 C81.00,77.98 79.67,79.37 78.60,79.88 C76.76,80.74 66.50,80.02 65.50,79.50 C64.71,79.05 63.00,77.00 62.85,76.31 C62.70,75.49 63.62,73.67 64.34,73.11 C65.24,72.44 67.68,71.90 69.23,72.03 C71.70,72.28 73.50,73.52 73.93,74.23 C74.19,74.72 74.12,75.39 73.72,75.64 C72.51,76.34 69.47,75.92 68.82,75.74 C68.56,75.67 68.25,75.54 67.89,75.35" fill="none" stroke="rgb(0, 0, 0)" stroke-width="2.18" stroke-opacity="1.00" stroke-linejoin="round"/>
<path d="M39.64,78.16 C39.65,78.17 39.66,78.15 39.69,78.10 C40.00,77.53 40.38,76.95 40.91,76.29 C43.13,73.60 48.58,71.08 51.11,70.98 C53.68,70.89 55.17,71.11 55.43,71.25 C55.49,71.28 55.57,71.36 55.67,71.48" fill="none" stroke="rgb(0, 0, 0)" stroke-width="2.18" stroke-opacity="1.00" stroke-linejoin="round"/>
<path d="M91.09,78.53 C91.07,78.51 91.05,78.49 91.04,78.49 C90.99,78.46 90.94,78.42 90.89,78.38 C90.53,78.06 88.50,75.93 87.85,75.58 C86.36,74.79 84.45,74.00 81.60,73.00 C81.42,72.94 81.32,72.91 81.29,72.90" fill="none" stroke="rgb(0, 0, 0)" stroke-width="2.18" stroke-opacity="1.00" stroke-linejoin="round"/>
<path d="M93.52,91.16 C93.73,91.35 94.40,91.65 94.92,91.58 C95.92,91.44 96.21,89.27 95.49,88.64 C95.45,88.60 95.36,88.55 95.23,88.48" fill="none" stroke="rgb(0, 0, 0)" stroke-width="2.18" stroke-opacity="1.00" stroke-linejoin="round"/>
<path d="M92.60,85.20 C92.60,85.20 92.57,85.24 92.57,85.24 C92.54,85.22 92.04,84.81 91.85,84.69 C90.92,84.14 89.03,83.86 88.10,84.20 C87.39,84.48 86.40,85.57 86.14,86.19 C85.60,87.71 87.57,92.51 89.57,94.36 C92.46,97.01 96.96,99.48 98.10,99.37 C99.58,99.21 101.96,98.33 102.85,97.55 C103.59,96.88 104.70,94.74 104.90,93.89 C105.65,90.29 99.76,84.65 99.42,84.37" fill="none" stroke="rgb(0, 0, 0)" stroke-width="2.18" stroke-opacity="1.00" stroke-linejoin="round"/>
<path d="M96.79,81.71 C96.75,81.64 96.72,81.58 96.70,81.54 C96.53,81.20 90.50,78.26 88.41,78.33 C87.19,78.40 84.31,79.83 83.22,80.75 C82.06,81.75 80.66,83.85 80.34,84.80 C80.02,85.85 79.98,88.52 80.48,90.06 C81.27,92.45 84.58,96.23 85.29,96.90 C85.38,96.98 85.47,97.06 85.55,97.13" fill="none" stroke="rgb(0, 0, 0)" stroke-width="2.18" stroke-opacity="1.00" stroke-linejoin="round"/>
<path d="M105.58,93.42 C105.65,93.46 105.74,93.55 105.83,93.68 C106.57,94.74 107.49,96.61 107.58,97.32 C107.63,97.76 107.70,98.84 107.73,99.12 C107.74,99.19 107.75,99.26 107.76,99.33" fill="none" stroke="rgb(0, 0, 0)" stroke-width="2.18" stroke-opacity="1.00" stroke-linejoin="round"/>
<path d="M109.06,116.88 C109.09,116.76 109.13,116.65 109.19,116.56 C109.96,115.39 111.24,115.90 111.28,116.74 C111.29,117.65 110.65,119.47 109.99,120.27 C109.46,120.88 107.20,118.98 107.11,116.74 C107.01,113.77 107.38,110.86 107.87,109.74 C109.15,106.92 111.62,105.04 112.31,105.70 C113.38,106.78 114.59,113.83 113.83,117.60 C113.52,119.07 111.97,123.02 111.22,124.19 C110.28,125.59 108.45,126.76 107.13,126.80 C106.42,126.79 104.29,125.90 103.70,125.32 C102.52,124.09 100.23,117.48 100.50,113.89 C100.84,109.85 103.03,104.21 104.55,102.27 C105.99,100.47 108.56,99.46 109.53,100.40 C110.45,101.32 111.74,104.09 111.90,105.40 C111.91,105.56 111.93,105.78 111.93,106.08" fill="none" stroke="rgb(0, 0, 0)" stroke-width="2.18" stroke-opacity="1.00" stroke-linejoin="round"/>
<path d="M105.66,135.52 C105.66,135.53 105.69,135.49 105.70,135.48 C106.30,134.30 106.88,133.67 107.21,133.71 C107.95,133.85 107.61,136.38 105.54,138.41 C103.98,139.92 102.41,139.73 102.23,139.00 C101.89,137.30 105.48,128.69 107.27,127.19 C107.36,127.12 107.46,127.07 107.59,127.05" fill="none" stroke="rgb(0, 0, 0)" stroke-width="2.18" stroke-opacity="1.00" stroke-linejoin="round"/>
<path d="M111.09,125.65 C111.09,125.65 111.08,125.59 111.08,125.59 C111.03,125.76 109.40,132.96 108.96,133.88 C108.75,134.30 108.36,135.00 107.77,135.97" fill="none" stroke="rgb(0, 0, 0)" stroke-width="2.18" stroke-opacity="1.00" stroke-linejoin="round"/>
<path d="M95.26,148.76 C95.88,148.59 96.96,146.43 95.93,145.98 C94.78,145.57 90.02,151.11 90.05,152.74 C90.13,153.86 93.63,152.77 96.38,150.58 C101.12,146.68 102.84,142.10 103.32,140.70 C103.35,140.60 103.41,140.48 103.49,140.33" fill="none" stroke="rgb(0, 0, 0)" stroke-width="2.18" stroke-opacity="1.00" stroke-linejoin="round"/>
<path d="M88.88,146.04 C88.86,146.04 88.85,146.04 88.84,146.04 C88.65,146.13 85.26,149.20 84.02,150.92 C82.80,152.66 81.83,155.85 81.91,156.59 C82.04,157.37 82.80,158.05 83.63,158.05 C85.56,158.01 90.38,154.90 91.59,153.90 C91.66,153.84 91.75,153.76 91.86,153.67" fill="none" stroke="rgb(0, 0, 0)" stroke-width="2.18" stroke-opacity="1.00" stroke-linejoin="round"/>
<path d="M71.69,157.33 C71.69,157.33 71.72,157.30 71.72,157.30 C71.76,156.36 69.02,157.22 68.77,158.43 C68.71,158.82 69.28,159.67 69.79,159.93 C71.46,160.71 76.22,158.31 76.61,157.15 C76.77,156.63 76.59,155.75 76.25,155.40 C75.24,154.44 65.91,154.69 64.89,154.89 C63.11,155.28 60.39,156.53 59.83,157.31 C59.30,158.13 58.91,159.53 59.04,160.17 C59.35,161.45 62.79,163.09 66.52,163.10 C68.31,163.09 74.36,161.96 76.34,161.27 C79.73,160.06 81.82,157.65 81.86,157.59" fill="none" stroke="rgb(0, 0, 0)" stroke-width="2.18" stroke-opacity="1.00" stroke-linejoin="round"/>
<path d="M53.67,160.90 C53.67,160.90 53.64,160.87 53.64,160.87 C55.40,161.92 58.63,162.46 60.06,162.66 C60.17,162.68 60.30,162.69 60.47,162.70 C60.50,162.70 60.56,162.70 60.63,162.70" fill="none" stroke="rgb(0, 0, 0)" stroke-width="2.18" stroke-opacity="1.00" stroke-linejoin="round"/>
<path d="M92.90,135.50 C92.90,135.50 92.92,135.47 92.92,135.47 C92.92,134.68 90.50,134.55 89.49,136.09 C88.66,137.44 89.75,139.81 91.11,140.32 C92.63,140.86 95.32,139.47 96.23,137.78 C97.04,136.25 97.06,132.07 95.73,130.08 C94.65,128.52 91.60,126.92 89.66,127.40 C88.71,127.65 86.78,128.88 85.77,129.80 C84.77,130.74 82.86,133.93 82.24,136.00 C81.78,137.58 82.30,140.57 83.26,141.98 C83.59,142.45 85.26,143.96 86.43,144.50 C87.70,145.06 91.23,145.27 92.79,144.61 C94.70,143.78 98.30,141.18 99.48,139.79 C100.63,138.40 101.79,135.21 101.93,133.30 C102.05,131.48 101.66,129.23 101.35,128.46 C101.00,127.62 99.73,125.91 98.46,125.05 C96.92,124.04 93.92,123.19 91.54,123.16 C84.92,123.12 82.14,122.34 81.32,121.99 C81.01,121.85 80.54,121.59 79.91,121.21" fill="none" stroke="rgb(0, 0, 0)" stroke-width="2.18" stroke-opacity="1.00" stroke-linejoin="round"/>
<path d="M89.61,111.10 C89.62,111.08 89.62,111.07 89.65,111.03 C90.10,110.49 90.51,109.51 90.16,108.66 C89.79,107.80 88.22,106.10 87.71,105.86 C86.92,105.53 84.27,106.12 83.55,106.55 C81.75,107.68 80.65,111.42 81.08,113.08 C81.54,114.80 84.57,117.06 86.93,117.33 C88.62,117.51 93.15,115.96 94.76,114.72 C96.06,113.70 97.30,111.55 97.55,110.12 C97.76,108.75 97.39,105.44 96.67,103.84 C95.68,101.72 92.16,99.00 90.38,98.40 C89.30,98.06 86.60,97.83 84.61,98.26 C80.60,99.16 76.37,102.88 75.42,104.82 C74.92,105.89 74.51,108.94 74.61,111.19 C74.73,113.17 75.48,115.43 76.42,116.94 C78.20,119.75 80.47,121.36 80.64,121.49 C80.77,121.59 81.09,121.86 81.61,122.30" fill="none" stroke="rgb(0, 0, 0)" stroke-width="2.18" stroke-opacity="1.00" stroke-linejoin="round"/>
<path d="M68.86,92.29 C68.86,92.28 68.86,92.29 68.86,92.29 C68.96,92.38 69.06,92.43 69.43,92.55 C70.23,92.81 71.35,92.74 71.94,92.17 C72.45,91.66 73.18,90.29 73.17,89.71 C73.14,89.16 72.11,87.54 71.06,87.04 C70.58,86.82 68.07,86.60 67.52,86.74 C66.73,86.97 65.38,88.05 64.95,88.94 C64.17,90.60 65.28,94.59 66.37,95.94 C67.69,97.55 71.43,98.55 73.12,98.02 C74.95,97.41 78.41,94.08 79.21,92.30 C79.91,90.69 79.97,87.19 79.28,85.83 C78.82,84.96 76.95,82.70 75.84,82.01 C74.26,81.07 69.85,80.34 67.26,80.63 C65.29,80.86 62.66,81.87 61.86,82.40 C59.55,84.01 57.41,88.72 57.51,90.95 C57.64,93.14 60.37,98.11 62.67,99.62 C67.72,102.68 68.86,103.81 69.30,104.35 C69.37,104.43 69.47,104.56 69.62,104.75" fill="none" stroke="rgb(0, 0, 0)" stroke-width="2.18" stroke-opacity="1.00" stroke-linejoin="round"/>
<path d="M28.84,87.37 C28.83,87.36 28.82,87.34 28.82,87.33 C28.79,87.27 28.76,87.23 28.74,87.21 C28.72,87.19 28.70,87.18 28.65,87.16 C27.79,87.80 27.90,90.06 29.33,89.43 C31.29,88.52 32.32,85.46 31.51,84.57 C30.81,83.87 27.03,86.09 25.56,88.48 C23.55,91.80 23.19,95.23 23.24,95.45 C23.26,95.53 23.35,95.83 23.50,96.34" fill="none" stroke="rgb(0, 0, 0)" stroke-width="2.18" stroke-opacity="1.00" stroke-linejoin="round"/>
<path d="M30.88,84.10 C30.91,84.07 30.92,84.06 30.93,84.05 C32.11,81.86 36.64,79.31 37.63,79.11 C37.78,79.08 38.11,79.03 38.62,78.96" fill="none" stroke="rgb(0, 0, 0)" stroke-width="2.18" stroke-opacity="1.00" stroke-linejoin="round"/>
<path d="M37.49,79.64 C37.44,79.83 37.43,81.69 36.83,83.50 C35.86,86.38 29.31,94.18 27.20,95.72 C27.07,95.82 26.83,95.95 26.51,96.13" fill="none" stroke="rgb(0, 0, 0)" stroke-width="2.18" stroke-opacity="1.00" stroke-linejoin="round"/>
<path d="M24.42,105.19 C24.42,105.19 24.39,105.15 24.39,105.15 C24.96,105.67 25.82,105.47 26.75,104.40 C27.15,103.92 27.37,102.81 27.13,102.37 C26.72,101.65 25.37,100.98 24.96,100.97 C23.85,101.00 22.63,104.98 22.92,107.20 C23.04,108.07 23.72,109.33 24.32,109.68 C24.99,110.05 26.57,109.68 27.54,108.80 C28.52,107.88 29.99,105.66 30.27,104.61 C30.91,102.14 29.09,97.35 27.62,96.52 C26.56,95.96 21.93,98.21 20.59,100.34 C19.98,101.33 19.24,103.64 19.10,104.65 C18.96,105.88 19.48,109.15 20.13,111.57 C20.28,112.13 20.93,113.50 21.32,114.31" fill="none" stroke="rgb(0, 0, 0)" stroke-width="2.18" stroke-opacity="1.00" stroke-linejoin="round"/>
<path d="M23.00,127.68 C23.00,127.70 23.00,127.72 23.01,127.73 C23.01,127.74 23.03,127.75 23.05,127.76 C23.61,127.22 21.61,124.97 21.11,125.54 C20.68,126.13 21.69,129.54 22.88,129.96 C23.49,130.15 25.10,129.77 25.64,129.14 C26.18,128.47 26.56,125.89 26.35,124.56 C26.14,123.37 24.64,120.67 23.64,119.60 C22.68,118.61 20.02,119.47 19.29,120.39 C18.20,121.83 18.25,126.49 19.07,129.29 C19.91,132.08 22.87,135.28 24.31,135.33 C25.05,135.34 26.70,134.39 27.42,133.50 C28.08,132.66 29.43,129.74 30.00,127.87 C30.24,127.05 30.38,124.66 29.89,123.00 C28.97,120.07 22.44,114.41 22.07,113.86 C21.49,113.02 20.99,111.85 20.55,110.44" fill="none" stroke="rgb(0, 0, 0)" stroke-width="2.18" stroke-opacity="1.00" stroke-linejoin="round"/>
<path d="M19.37,109.11 C19.36,109.09 19.35,109.07 19.35,109.06 C19.35,109.05 19.35,109.04 19.35,109.02 C18.06,111.17 18.15,120.67 18.49,121.43 C18.53,121.50 18.61,121.61 18.75,121.76" fill="none" stroke="rgb(0, 0, 0)" stroke-width="2.18" stroke-opacity="1.00" stroke-linejoin="round"/>
<path d="M42.74,106.06 C42.74,106.06 42.69,106.05 42.69,106.05 C42.67,106.85 44.39,106.82 45.01,104.97 C45.40,103.76 43.76,101.40 42.19,100.98 C40.71,100.61 38.20,102.02 37.22,103.94 C36.41,105.61 36.98,110.15 38.71,111.86 C40.37,113.40 46.46,114.48 48.58,113.68 C50.58,112.85 54.12,107.61 54.07,105.22 C53.97,102.73 53.07,100.04 51.74,98.10 C50.53,96.40 47.78,94.77 45.64,94.39 C44.70,94.24 41.06,94.22 39.09,94.67 C36.95,95.18 34.29,97.17 33.45,98.17 C32.61,99.21 31.27,101.91 30.68,104.10 C30.11,106.34 30.41,110.44 31.23,112.78 C32.05,115.00 36.34,118.45 39.68,119.85 C39.83,119.91 40.06,120.00 40.37,120.13" fill="none" stroke="rgb(0, 0, 0)" stroke-width="2.18" stroke-opacity="1.00" stroke-linejoin="round"/>
<path d="M69.49,140.02 C69.49,140.02 69.37,140.07 69.37,140.07 C69.37,140.07 69.23,140.08 69.23,140.08" fill="none" stroke="rgb(0, 0, 0)" stroke-width="2.18" stroke-opacity="1.00" stroke-linejoin="round"/>
<path d="M47.23,151.38 C47.26,151.34 47.23,151.15 47.12,151.02 C46.81,150.65 45.60,150.18 45.24,150.43 C44.37,151.06 43.77,152.75 44.13,153.38 C44.85,154.56 48.40,156.19 49.84,155.73 C50.58,155.47 51.53,154.24 51.62,153.42 C51.76,151.73 49.02,148.30 45.88,146.89 C43.16,145.70 38.98,146.11 38.18,147.19 C37.81,147.71 37.45,149.18 37.46,149.87 C37.49,150.61 38.28,152.15 39.98,153.85 C42.67,156.50 50.96,160.00 53.47,159.86 C55.61,159.70 58.82,157.36 58.97,155.90 C59.11,154.24 55.81,149.96 52.32,147.75 C50.09,146.36 37.41,142.11 34.31,139.28 C31.95,137.04 30.64,134.47 30.58,134.16 C30.55,134.05 30.52,133.81 30.48,133.44" fill="none" stroke="rgb(0, 0, 0)" stroke-width="2.18" stroke-opacity="1.00" stroke-linejoin="round"/>
<path d="M37.12,150.80 C37.07,150.80 36.93,150.73 36.72,150.58 C33.91,148.62 25.80,139.49 24.57,136.21 C24.38,135.71 24.30,135.24 24.29,135.15 C24.29,135.13 24.29,135.10 24.27,135.08" fill="none" stroke="rgb(0, 0, 0)" stroke-width="2.18" stroke-opacity="1.00" stroke-linejoin="round"/>
<path d="M63.61,113.03 C63.59,113.06 63.81,112.35 63.83,112.19 C63.92,111.62 63.31,110.63 62.74,110.47 C62.21,110.36 60.02,111.37 59.00,112.49 C58.01,113.63 58.55,116.51 60.12,117.30 C62.12,118.28 65.98,117.44 67.49,115.89 C68.02,115.33 68.89,113.81 69.07,113.10 C69.28,112.20 68.93,110.57 68.17,109.49 C66.37,107.00 62.12,104.96 60.21,105.09 C59.11,105.18 56.34,106.09 54.69,107.16 C53.09,108.22 50.88,112.42 50.50,114.76 C50.05,117.61 51.62,121.11 53.76,123.03 C55.69,124.73 60.20,126.52 62.46,126.25 C65.22,125.89 68.60,124.46 70.28,122.82 C72.84,120.26 74.75,116.00 74.78,113.49 C74.78,111.49 71.96,106.76 68.38,103.33 C68.05,103.02 67.68,102.70 67.26,102.36" fill="none" stroke="rgb(0, 0, 0)" stroke-width="2.18" stroke-opacity="1.00" stroke-linejoin="round"/>
<path d="M43.09,131.91 C43.09,131.92 43.08,131.95 43.06,132.00 C42.74,132.72 45.25,132.83 46.02,131.94 C46.46,131.41 46.79,129.82 46.48,129.07 C45.82,127.58 41.80,125.89 40.20,126.63 C38.47,127.49 36.81,131.99 37.47,133.92 C37.88,135.05 39.63,137.12 41.02,138.02 C42.45,138.93 45.37,139.61 46.85,139.43 C48.41,139.21 50.92,137.66 52.14,136.31 C53.19,135.10 54.44,132.44 54.39,131.06 C54.33,129.94 53.61,127.50 53.09,126.66 C52.63,125.98 49.54,123.14 47.51,121.80 C45.71,120.63 42.58,119.68 41.10,119.69 C38.32,119.73 34.71,121.41 33.31,123.26 C32.33,124.61 30.61,128.52 30.21,130.37 C29.93,131.83 30.19,133.71 30.45,134.35 C30.55,134.61 30.80,135.08 31.20,135.76" fill="none" stroke="rgb(0, 0, 0)" stroke-width="2.18" stroke-opacity="1.00" stroke-linejoin="round"/>
<path d="M68.09,139.77 C68.08,139.75 68.07,139.75 68.07,139.74 C68.07,139.73 68.06,139.72 68.06,139.71 C68.37,140.69 70.06,141.56 70.88,141.14 C71.83,140.62 72.60,136.90 71.59,136.04 C70.45,135.12 67.74,134.85 65.92,136.02 C64.72,136.80 63.10,138.77 62.81,139.61 C62.27,141.37 63.22,145.14 64.87,146.46 C66.41,147.68 70.57,148.82 72.59,148.54 C74.83,148.19 79.14,144.41 80.03,142.40 C81.11,139.82 80.15,134.84 78.76,133.03 C77.83,131.84 75.50,129.87 73.64,129.02 C71.83,128.22 68.09,127.60 65.46,127.76 C62.40,127.98 58.97,128.95 57.33,130.10 C56.02,131.05 54.20,133.34 53.70,134.41 C52.35,137.38 52.59,143.36 53.76,145.27 C54.41,146.29 57.21,148.94 58.66,149.83 C59.95,150.58 64.44,152.07 66.70,152.41 C68.39,152.64 73.28,152.32 74.21,152.26 C79.75,151.96 82.52,155.96 82.68,156.21 C82.74,156.32 82.83,156.38 83.04,156.49" fill="none" stroke="rgb(0, 0, 0)" stroke-width="2.18" stroke-opacity="1.00" stroke-linejoin="round"/>
</g>
</svg>
